<svg xmlns="http://www.w3.org/2000/svg" version="1.1" xmlns:xlink="http://www.w3.org/1999/xlink" xmlns:svgjs="http://svgjs.dev/svgjs" width="1500" height="371" viewBox="0 0 1500 371"><g transform="matrix(1,0,0,1,-0.9090909090909918,-0.9937717588834971)"><svg viewBox="0 0 396 98" data-background-color="#000000" preserveAspectRatio="xMidYMid meet" height="371" width="1500" xmlns="http://www.w3.org/2000/svg" xmlns:xlink="http://www.w3.org/1999/xlink"><g id="tight-bounds" transform="matrix(1,0,0,1,0.2400000000000091,0.26250574762960355)"><svg viewBox="0 0 395.52 97.47498850474081" height="97.47498850474081" width="395.52"><g><svg viewBox="0 0 555.9322265706722 137.00821044293903" height="97.47498850474081" width="395.52"><g transform="matrix(1,0,0,1,0,18.93528812923398)"><svg viewBox="0 0 395.52 99.13763418447107" height="99.13763418447107" width="395.52"><g id="textblocktransform"><svg viewBox="0 0 395.52 99.13763418447107" height="99.13763418447107" width="395.52" id="textblock"><g><svg viewBox="0 0 395.52 99.13763418447107" height="99.13763418447107" width="395.52"><g transform="matrix(1,0,0,1,0,0)"><svg width="395.52" viewBox="1.3 -37.1 191.88 48.1" height="99.13763418447107" data-palette-color="#ddfac4"><g class="wordmark-text-0" data-fill-palette-color="primary" id="text-0"><path d="M11.5-19.25Q9.3-19.25 8.1-17.68 6.9-16.1 6.9-12.85 6.9-9.6 8.13-7.63 9.35-5.65 11.7-5.65L11.7-5.65Q12.9-5.65 14.05-6.4 15.2-7.15 15.8-7.9L15.8-7.9 16.35-8.7 18.85-6.1Q18.7-5.85 18.48-5.4 18.25-4.95 17.38-3.8 16.5-2.65 15.53-1.78 14.55-0.9 13-0.18 11.45 0.55 9.75 0.55L9.75 0.55Q6 0.55 3.65-2.5 1.3-5.55 1.3-10.45L1.3-10.45Q1.3-16.55 4.85-21.15 8.4-25.75 13.15-25.75L13.15-25.75Q14.6-25.75 16.05-25.33 17.5-24.9 19-24L19-24 15.5-17.85Q13.7-19.25 11.5-19.25ZM20.65-10.45Q20.65-16.85 24.1-21.3 27.55-25.75 32.17-25.75 36.8-25.75 39.37-22.75 41.95-19.75 41.95-14.8L41.95-14.8Q41.95-8.2 38.62-3.83 35.3 0.55 30.25 0.55L30.25 0.55Q26.1 0.55 23.37-2.58 20.65-5.7 20.65-10.45L20.65-10.45ZM36.35-12.2L36.35-12.2Q36.35-19.45 31.4-19.45L31.4-19.45Q26.25-19.45 26.25-12.65L26.25-12.65Q26.25-9.1 27.7-7.1 29.15-5.1 31.52-5.1 33.9-5.1 35.12-6.93 36.35-8.75 36.35-12.2ZM46.24-24.2L52.95-25.45 52.34-13 52.89-1.25 46.2 0 46.8-12.15 46.24-24.2ZM45.89-32.77Q45.89-34.45 47.2-35.77 48.49-37.1 50.2-37.1 51.89-37.1 52.8-36.18 53.7-35.25 53.7-33.4 53.7-31.55 52.42-30.23 51.14-28.9 49.47-28.9 47.8-28.9 46.84-30 45.89-31.1 45.89-32.77ZM72.94-12.65Q72.94-16.1 72.34-17.25 71.74-18.4 69.54-18.4 67.34-18.4 64.54-16.65L64.54-16.65 64.54-13 65.09-1.25 58.39 0 58.99-12.15Q58.79-18.85 57.89-24.15L57.89-24.15 63.94-25.45Q64.29-22.55 64.44-19.8L64.44-19.8Q65.19-20.8 66.14-21.78 67.09-22.75 69.14-23.98 71.19-25.2 73.47-25.2 75.74-25.2 77.29-23.43 78.84-21.65 78.84-18.6L78.84-18.6 78.54-13 79.09-1 72.34 0.25 72.94-12.65ZM82.34-4.55L86.24-9.95Q90.49-5.7 94.74-5.7L94.74-5.7Q96.94-5.7 98.27-6.73 99.59-7.75 99.59-9.38 99.59-11 97.99-12.13 96.39-13.25 94.12-14.1 91.84-14.95 89.59-16.03 87.34-17.1 85.74-19.1 84.14-21.1 84.14-23.95L84.14-23.95Q84.14-28.45 87.89-31.73 91.64-35 96.79-35L96.79-35Q99.14-35 101.34-34.5 103.54-34 105.59-33.05L105.59-33.05 102.19-25.75Q100.79-26.85 98.37-27.78 95.94-28.7 94.12-28.7 92.29-28.7 91.17-27.83 90.04-26.95 90.04-25.5 90.04-24.05 91.64-22.93 93.24-21.8 95.52-20.95 97.79-20.1 100.07-19.07 102.34-18.05 103.94-16.05 105.54-14.05 105.54-11.2L105.54-11.2Q105.54-6.5 101.79-2.98 98.04 0.55 93.04 0.55L93.04 0.55Q89.29 0.55 86.39-1.25L86.39-1.25Q83.84-2.8 82.79-4L82.79-4 82.34-4.55ZM118.74-5.1L118.74-5.1Q120.19-5.1 121.79-5.85 123.39-6.6 124.29-7.35L124.29-7.35 125.19-8.1 127.49-5.3Q126.99-4.45 125.94-3.35 124.89-2.25 123.81-1.48 122.74-0.7 120.96-0.08 119.19 0.55 117.29 0.55L117.29 0.55Q113.24 0.55 110.69-2.53 108.14-5.6 108.14-10.45L108.14-10.45Q108.14-16.55 111.69-21.15 115.24-25.75 119.99-25.75L119.99-25.75Q123.64-25.75 125.66-23.7 127.69-21.65 127.69-17.95L127.69-17.95Q127.69-15.75 126.94-12.95L126.94-12.95 125.94-11.9 113.44-10.75Q114.29-5.1 118.74-5.1ZM118.74-20.6L118.74-20.6Q116.54-20.6 115.04-18.82 113.54-17.05 113.29-14.3L113.29-14.3 121.79-15.35Q121.94-16.5 121.94-17.25L121.94-17.25Q121.94-20.6 118.74-20.6ZM131.49-24.15L131.49-24.15 137.54-25.45Q137.99-21.6 138.14-18.15L138.14-18.15Q142.69-25.2 146.69-25.2L146.69-25.2 146.14-17.4Q143.24-17.4 141.56-16.88 139.89-16.35 138.14-14.8L138.14-14.8 138.14-13 138.69-1.25 131.99 0 132.59-12.15Q132.39-18.85 131.49-24.15ZM148.08 4.95L148.08 4.95Q148.08 0.55 156.28-1.95L156.28-1.95Q154.33-2.95 154.33-4.55L154.33-4.55Q154.33-5.2 154.83-5.85 155.33-6.5 156.28-7.2L156.28-7.2 156.28-7.6Q152.68-7.6 150.56-9.6 148.43-11.6 148.43-14.95L148.43-14.95Q148.43-19.3 151.98-22.53 155.53-25.75 160.38-25.75L160.38-25.75Q161.63-25.75 164.03-25.25 166.43-24.75 168.73-24.75L168.73-24.75 172.58-24.75 172.08-20.4 168.33-20.85Q168.83-19.4 168.83-17.55 168.83-15.7 167.96-13.88 167.08-12.05 165.86-10.95 164.63-9.85 163.41-9.03 162.18-8.2 161.31-7.58 160.43-6.95 160.43-6.45L160.43-6.45Q160.43-5.5 162.43-4.8L162.43-4.8Q167.73-2.65 169.61-1.15 171.48 0.35 171.48 2.55L171.48 2.55Q171.48 6.25 167.76 8.63 164.03 11 158.88 11 153.73 11 150.91 9.35 148.08 7.7 148.08 4.95ZM163.18-16.05L163.18-16.05Q163.18-18.5 162.08-19.65 160.98-20.8 158.63-20.8L158.63-20.8Q154.08-20.8 154.08-16.32 154.08-11.85 158.93-11.85L158.93-11.85Q163.18-11.85 163.18-16.05ZM164.98 3.3L164.98 3.3Q164.98 2.4 164.03 1.63 163.08 0.85 160.63-0.2L160.63-0.2Q156.98 0.8 155.61 1.65 154.23 2.5 154.23 3.75 154.23 5 155.61 5.78 156.98 6.55 159.43 6.55 161.88 6.55 163.43 5.65 164.98 4.75 164.98 3.3ZM184.23-5.1L184.23-5.1Q185.68-5.1 187.28-5.85 188.88-6.6 189.78-7.35L189.78-7.35 190.68-8.1 192.98-5.3Q192.48-4.45 191.43-3.35 190.38-2.25 189.31-1.48 188.23-0.7 186.46-0.08 184.68 0.55 182.78 0.55L182.78 0.55Q178.73 0.55 176.18-2.53 173.63-5.6 173.63-10.45L173.63-10.45Q173.63-16.55 177.18-21.15 180.73-25.75 185.48-25.75L185.48-25.75Q189.13-25.75 191.16-23.7 193.18-21.65 193.18-17.95L193.18-17.95Q193.18-15.75 192.43-12.95L192.43-12.95 191.43-11.9 178.93-10.75Q179.78-5.1 184.23-5.1ZM184.23-20.6L184.23-20.6Q182.03-20.6 180.53-18.82 179.03-17.05 178.78-14.3L178.78-14.3 187.28-15.35Q187.43-16.5 187.43-17.25L187.43-17.25Q187.43-20.6 184.23-20.6Z" fill="#ddfac4" data-fill-palette-color="primary"></path></g></svg></g></svg></g></svg></g></svg></g><g transform="matrix(1,0,0,1,418.9240161277332,0)"><svg viewBox="0 0 137.00821044293903 137.00821044293903" height="137.00821044293903" width="137.00821044293903"><g><svg xmlns:rdf="http://www.w3.org/1999/02/22-rdf-syntax-ns#" xmlns="http://www.w3.org/2000/svg" xmlns:cc="http://creativecommons.org/ns#" xmlns:dc="http://purl.org/dc/elements/1.1/" version="1.1" viewBox="5 5 90 90" x="0" y="0" height="137.00821044293903" width="137.00821044293903" class="icon-icon-0" data-fill-palette-color="accent" id="icon-0"><path fill="#f6f6f6" d="M50 5C25.147 5 5 25.147 5 50S25.147 95 50 95 95 74.853 95 50 74.853 5 50 5M50 10C72.091 10 90 27.909 90 50S72.091 90 50 90 10 72.091 10 50 27.909 10 50 10M50 11.625C28.811 11.625 11.625 28.811 11.625 50S28.811 88.375 50 88.375 88.375 71.189 88.375 50 71.189 11.625 50 11.625M50 12.375C70.784 12.375 87.625 29.216 87.625 50S70.784 87.625 50 87.625 12.375 70.784 12.375 50 29.216 12.375 50 12.375M29.562 23.531L23.562 29.75 30.812 36.844C28.342 40.671 27.094 44.776 27.094 49.125 27.094 53.508 28.342 57.611 30.812 61.438L23.562 68.531 29.562 74.75 36.812 67.438C40.5 69.977 44.63 71.25 49.188 71.25 53.78 71.25 57.878 69.977 61.531 67.438L68.812 74.75 74.844 68.531 67.594 61.438C70.064 57.611 71.312 53.508 71.312 49.125 71.312 44.776 70.064 40.671 67.594 36.844L74.844 29.75 68.812 23.531 61.531 30.812C57.878 28.308 53.78 27.031 49.188 27.031 44.63 27.031 40.5 28.308 36.812 30.812zM49.125 35.594C52.882 35.594 56.061 36.919 58.688 39.562 61.314 42.207 62.625 45.403 62.625 49.125 62.625 52.882 61.331 56.075 58.688 58.719 56.043 61.363 52.847 62.688 49.125 62.688S42.206 61.363 39.562 58.719C36.919 56.075 35.594 52.882 35.594 49.125 35.594 45.403 36.919 42.207 39.562 39.562 42.206 36.919 45.403 35.594 49.125 35.594" data-fill-palette-color="accent"></path></svg></g></svg></g></svg></g><defs></defs></svg><rect width="395.52" height="97.47498850474081" fill="none" stroke="none" visibility="hidden"></rect></g></svg></g></svg>